# xmcd
#
# Track frame offsets:
#        150
#        19247
#        34385
#        54050
#        71290
#        85872
#        102800
#        122437
#        137340
#        154857
#        162525
#        176007
#        190222
#        210907
#        222470
#
# Disc length: 3166 seconds
#
# Revision: 0
# Processed by: cddbd v1.5.1PL2 Copyright (c) Steve Scherf et al.
# Submitted via: ExactAudioCopy v0.95b1
#
DISCID=c40c5c0f
DTITLE=Levellers - Zeitgeist
DYEAR=1995
DGENRE=Rock
TTITLE0=Hope St.
TTITLE1=The Fear
TTITLE2=Exodus
TTITLE3=Maid of the River
TTITLE4=Saturday to Sunday
TTITLE5=4.am
TTITLE6=Forgotten Ground
TTITLE7=Fantasy
TTITLE8=P.C. Keen
TTITLE9=Just the One
TTITLE10=Haven't Made it
TTITLE11=Leave The Town
TTITLE12=Men-an-Tol
TTITLE13=Miles Away
TTITLE14=Busking On Hope St.
EXTD=
EXTT0=
EXTT1=
EXTT2=
EXTT3=
EXTT4=
EXTT5=
EXTT6=
EXTT7=
EXTT8=
EXTT9=
EXTT10=
EXTT11=
EXTT12=
EXTT13=
EXTT14=
PLAYORDER=
